<!-- Generated by IcoMoon.io -->
<svg version="1.1" xmlns="http://www.w3.org/2000/svg" width="32" height="32" viewBox="0 0 32 32">
<title>send</title>
<path d="M30.644 0.050l-29.938 9.781c-0.844 0.275-0.969 1.425-0.2 1.875l11.313 6.581c0.356 0.206 0.8 0.181 1.131-0.063l3.181-2.363-2.363 3.181c-0.244 0.331-0.269 0.775-0.063 1.131l6.581 11.313c0.45 0.769 1.6 0.644 1.875-0.2l9.781-29.938c0.269-0.8-0.5-1.556-1.3-1.3v0zM20.919 28.456l-5.075-8.731 6.125-8.244c0.306-0.412 0.262-0.981-0.1-1.344s-0.938-0.406-1.344-0.1l-8.244 6.125-8.738-5.081 25.813-8.431-8.438 25.806zM10.838 22.619l-6.856 6.856c-0.4 0.4-1.056 0.406-1.462 0-0.406-0.4-0.406-1.056 0-1.462l6.856-6.856c0.406-0.4 1.056-0.406 1.463 0s0.406 1.063 0 1.462zM1.781 22.881c-0.406-0.406-0.406-1.056 0-1.462l2.706-2.706c0.4-0.406 1.056-0.406 1.462 0s0.406 1.056 0 1.462l-2.706 2.706c-0.406 0.4-1.056 0.4-1.462 0zM13.281 26.050c0.406 0.4 0.406 1.056 0 1.462l-2.706 2.706c-0.2 0.2-0.469 0.3-0.731 0.3-0.912 0-1.381-1.113-0.731-1.762l2.706-2.706c0.406-0.4 1.063-0.4 1.463 0v0z"></path>
</svg>
